<mxfile host="app.diagrams.net" modified="2024-01-20T18:30:05.643Z" agent="Mozilla/5.0 (Windows NT 10.0; Win64; x64) AppleWebKit/537.36 (KHTML, like Gecko) Chrome/120.0.0.0 Safari/537.36" etag="XoZFGGdFmyo9p1mnJe2N" version="22.1.21" type="github">
  <diagram name="Page-1" id="U49TV1SipxfMAh27jbKV">
    <mxGraphModel dx="18000" dy="9720" grid="1" gridSize="10" guides="1" tooltips="1" connect="1" arrows="1" fold="1" page="0" pageScale="1" pageWidth="850" pageHeight="1100" math="0" shadow="0">
      <root>
        <mxCell id="0" />
        <mxCell id="1" parent="0" />
        <mxCell id="pfwXxKV2OIWxwd-ICf_l-3" value="&lt;p style=&quot;line-height: 294%;&quot;&gt;&lt;font style=&quot;font-size: 34px;&quot;&gt;Toute personne qui aurait&lt;/font&gt;&lt;/p&gt;&lt;p style=&quot;line-height: 294%;&quot;&gt;&lt;font style=&quot;font-size: 34px;&quot;&gt;besoin d&#39;un moyen de repère&lt;/font&gt;&lt;/p&gt;" style="shape=umlActor;verticalLabelPosition=bottom;verticalAlign=top;html=1;outlineConnect=0;strokeWidth=6;" vertex="1" parent="1">
          <mxGeometry x="190" y="550" width="190" height="330" as="geometry" />
        </mxCell>
        <mxCell id="pfwXxKV2OIWxwd-ICf_l-2" value="t" style="rounded=0;whiteSpace=wrap;html=1;" vertex="1" parent="1">
          <mxGeometry x="660" y="-590" width="1860" height="2500" as="geometry" />
        </mxCell>
        <mxCell id="pfwXxKV2OIWxwd-ICf_l-5" value="&lt;span style=&quot;font-size: 50px;&quot;&gt;Géo app&lt;/span&gt;" style="text;html=1;strokeColor=none;fillColor=none;align=center;verticalAlign=middle;whiteSpace=wrap;rounded=0;" vertex="1" parent="1">
          <mxGeometry x="1485" y="-500" width="210" height="30" as="geometry" />
        </mxCell>
        <mxCell id="pfwXxKV2OIWxwd-ICf_l-6" value="&lt;p style=&quot;border-color: var(--border-color); line-height: 35.28px;&quot;&gt;&lt;font style=&quot;border-color: var(--border-color); font-size: 34px;&quot;&gt;Toute personne qui aurait&lt;/font&gt;&lt;/p&gt;&lt;p style=&quot;border-color: var(--border-color); line-height: 35.28px;&quot;&gt;&lt;font style=&quot;border-color: var(--border-color); font-size: 34px;&quot;&gt;besoin d&#39;un moyen de repère&lt;/font&gt;&lt;/p&gt;" style="shape=umlActor;verticalLabelPosition=bottom;verticalAlign=top;html=1;outlineConnect=0;strokeWidth=6;" vertex="1" parent="1">
          <mxGeometry x="3970" y="495" width="190" height="330" as="geometry" />
        </mxCell>
        <mxCell id="pfwXxKV2OIWxwd-ICf_l-7" value="t" style="rounded=0;whiteSpace=wrap;html=1;" vertex="1" parent="1">
          <mxGeometry x="4470" y="-620" width="1860" height="2500" as="geometry" />
        </mxCell>
        <mxCell id="pfwXxKV2OIWxwd-ICf_l-8" value="&lt;span style=&quot;font-size: 50px;&quot;&gt;Géo app&lt;/span&gt;" style="text;html=1;strokeColor=none;fillColor=none;align=center;verticalAlign=middle;whiteSpace=wrap;rounded=0;" vertex="1" parent="1">
          <mxGeometry x="5295" y="-530" width="210" height="30" as="geometry" />
        </mxCell>
        <mxCell id="pfwXxKV2OIWxwd-ICf_l-18" value="&lt;font style=&quot;font-size: 60px;&quot;&gt;Cas d&#39;authentification&lt;/font&gt;" style="text;html=1;strokeColor=none;fillColor=none;align=center;verticalAlign=middle;whiteSpace=wrap;rounded=0;" vertex="1" parent="1">
          <mxGeometry x="1315" y="-940" width="550" height="150" as="geometry" />
        </mxCell>
        <mxCell id="pfwXxKV2OIWxwd-ICf_l-19" value="Text" style="text;html=1;align=center;verticalAlign=middle;resizable=0;points=[];autosize=1;strokeColor=none;fillColor=none;" vertex="1" parent="1">
          <mxGeometry x="225" y="608" width="50" height="30" as="geometry" />
        </mxCell>
        <mxCell id="pfwXxKV2OIWxwd-ICf_l-20" value="&lt;p style=&quot;line-height: 294%;&quot;&gt;&lt;font style=&quot;font-size: 34px;&quot;&gt;Admin&lt;/font&gt;&lt;/p&gt;" style="shape=umlActor;verticalLabelPosition=bottom;verticalAlign=top;html=1;outlineConnect=0;strokeWidth=6;" vertex="1" parent="1">
          <mxGeometry x="2890" y="495" width="190" height="330" as="geometry" />
        </mxCell>
        <mxCell id="pfwXxKV2OIWxwd-ICf_l-21" value="&lt;p style=&quot;line-height: 294%;&quot;&gt;&lt;font style=&quot;font-size: 34px;&quot;&gt;Admin&lt;/font&gt;&lt;/p&gt;" style="shape=umlActor;verticalLabelPosition=bottom;verticalAlign=top;html=1;outlineConnect=0;strokeWidth=6;" vertex="1" parent="1">
          <mxGeometry x="6960" y="465" width="190" height="330" as="geometry" />
        </mxCell>
        <mxCell id="pfwXxKV2OIWxwd-ICf_l-24" value="&lt;p style=&quot;border-color: var(--border-color); line-height: 35.28px;&quot;&gt;&lt;font style=&quot;border-color: var(--border-color); font-size: 34px;&quot;&gt;Toute personne qui aurait&lt;/font&gt;&lt;/p&gt;&lt;p style=&quot;border-color: var(--border-color); line-height: 35.28px;&quot;&gt;&lt;font style=&quot;border-color: var(--border-color); font-size: 34px;&quot;&gt;besoin d&#39;un moyen de repère&lt;/font&gt;&lt;/p&gt;" style="shape=umlActor;verticalLabelPosition=bottom;verticalAlign=top;html=1;outlineConnect=0;strokeWidth=6;" vertex="1" parent="1">
          <mxGeometry x="100" y="4665" width="190" height="330" as="geometry" />
        </mxCell>
        <mxCell id="pfwXxKV2OIWxwd-ICf_l-25" value="t" style="rounded=0;whiteSpace=wrap;html=1;" vertex="1" parent="1">
          <mxGeometry x="600" y="3550" width="1860" height="2500" as="geometry" />
        </mxCell>
        <mxCell id="pfwXxKV2OIWxwd-ICf_l-26" value="&lt;span style=&quot;font-size: 50px;&quot;&gt;Géo app&lt;/span&gt;" style="text;html=1;strokeColor=none;fillColor=none;align=center;verticalAlign=middle;whiteSpace=wrap;rounded=0;" vertex="1" parent="1">
          <mxGeometry x="1425" y="3640" width="210" height="30" as="geometry" />
        </mxCell>
        <mxCell id="pfwXxKV2OIWxwd-ICf_l-27" value="&lt;p style=&quot;line-height: 294%;&quot;&gt;&lt;font style=&quot;font-size: 34px;&quot;&gt;Admin&lt;/font&gt;&lt;/p&gt;" style="shape=umlActor;verticalLabelPosition=bottom;verticalAlign=top;html=1;outlineConnect=0;strokeWidth=6;" vertex="1" parent="1">
          <mxGeometry x="3090" y="4635" width="190" height="330" as="geometry" />
        </mxCell>
        <mxCell id="pfwXxKV2OIWxwd-ICf_l-28" value="&lt;p style=&quot;border-color: var(--border-color); line-height: 35.28px;&quot;&gt;&lt;font style=&quot;border-color: var(--border-color); font-size: 34px;&quot;&gt;Toute personne qui aurait&lt;/font&gt;&lt;/p&gt;&lt;p style=&quot;border-color: var(--border-color); line-height: 35.28px;&quot;&gt;&lt;font style=&quot;border-color: var(--border-color); font-size: 34px;&quot;&gt;besoin d&#39;un moyen de repère&lt;/font&gt;&lt;/p&gt;" style="shape=umlActor;verticalLabelPosition=bottom;verticalAlign=top;html=1;outlineConnect=0;strokeWidth=6;" vertex="1" parent="1">
          <mxGeometry x="3920" y="4665" width="190" height="330" as="geometry" />
        </mxCell>
        <mxCell id="pfwXxKV2OIWxwd-ICf_l-29" value="t" style="rounded=0;whiteSpace=wrap;html=1;" vertex="1" parent="1">
          <mxGeometry x="4420" y="3550" width="1860" height="2500" as="geometry" />
        </mxCell>
        <mxCell id="pfwXxKV2OIWxwd-ICf_l-30" value="&lt;span style=&quot;font-size: 50px;&quot;&gt;Géo app&lt;/span&gt;" style="text;html=1;strokeColor=none;fillColor=none;align=center;verticalAlign=middle;whiteSpace=wrap;rounded=0;" vertex="1" parent="1">
          <mxGeometry x="5245" y="3640" width="210" height="30" as="geometry" />
        </mxCell>
        <mxCell id="pfwXxKV2OIWxwd-ICf_l-31" value="&lt;p style=&quot;line-height: 294%;&quot;&gt;&lt;font style=&quot;font-size: 34px;&quot;&gt;Admin&lt;/font&gt;&lt;/p&gt;" style="shape=umlActor;verticalLabelPosition=bottom;verticalAlign=top;html=1;outlineConnect=0;strokeWidth=6;" vertex="1" parent="1">
          <mxGeometry x="6910" y="4635" width="190" height="330" as="geometry" />
        </mxCell>
        <mxCell id="pfwXxKV2OIWxwd-ICf_l-33" value="&lt;font style=&quot;font-size: 60px;&quot;&gt;Cas de recherche de direction&lt;/font&gt;" style="text;html=1;strokeColor=none;fillColor=none;align=center;verticalAlign=middle;whiteSpace=wrap;rounded=0;" vertex="1" parent="1">
          <mxGeometry x="5125" y="-940" width="550" height="150" as="geometry" />
        </mxCell>
        <mxCell id="pfwXxKV2OIWxwd-ICf_l-34" value="&lt;font style=&quot;font-size: 60px;&quot;&gt;Cas de parcours de l&#39;historique des déplacements&lt;/font&gt;" style="text;html=1;strokeColor=none;fillColor=none;align=center;verticalAlign=middle;whiteSpace=wrap;rounded=0;" vertex="1" parent="1">
          <mxGeometry x="1127.5" y="3240" width="805" height="150" as="geometry" />
        </mxCell>
        <mxCell id="pfwXxKV2OIWxwd-ICf_l-35" value="&lt;font style=&quot;font-size: 60px;&quot;&gt;Cas d&#39;enregistrement de préférences&lt;/font&gt;" style="text;html=1;strokeColor=none;fillColor=none;align=center;verticalAlign=middle;whiteSpace=wrap;rounded=0;" vertex="1" parent="1">
          <mxGeometry x="5005" y="3200" width="690" height="150" as="geometry" />
        </mxCell>
      </root>
    </mxGraphModel>
  </diagram>
</mxfile>
